Start = 10.000000, duration = 60, magnitude = 100.000000, direction = 180
datacolumns 10
datarows 183
range 19.58000085 19.66474436
endheader
time	ground_force1_vx	ground_force1_vy	ground_force1_vz	ground_force1_px	ground_force1_py	ground_force1_pz	ground_torque1_x	ground_torque1_y	ground_torque1_z
19.58000085	-83.30453099	1.020186272e-14	0	0	0	0	0	0	0
19.5800017	-83.30444807	1.020185257e-14	0	0	0	0	0	0	0
19.58000594	-83.30403441	1.020180191e-14	0	0	0	0	0	0	0
19.58002714	-83.30196603	1.020154861e-14	0	0	0	0	0	0	0
19.58013315	-83.29162146	1.020028176e-14	0	0	0	0	0	0	0
19.5803537	-83.27009062	1.019764499e-14	0	0	0	0	0	0	0
19.58063396	-83.24271251	1.019429214e-14	0	0	0	0	0	0	0
19.58100739	-83.20620118	1.018982079e-14	0	0	0	0	0	0	0
19.58145807	-83.16208885	1.018441859e-14	0	0	0	0	0	0	0
19.58204115	-83.10493932	1.017741979e-14	0	0	0	0	0	0	0
19.58276511	-83.03385942	1.016871502e-14	0	0	0	0	0	0	0
19.58348906	-82.96264515	1.015999378e-14	0	0	0	0	0	0	0
19.58428434	-82.88425834	1.015039417e-14	0	0	0	0	0	0	0
19.58507963	-82.80570751	1.014077447e-14	0	0	0	0	0	0	0
19.58579014	-82.73539264	1.013216338e-14	0	0	0	0	0	0	0
19.58650065	-82.66494786	1.012353638e-14	0	0	0	0	0	0	0
19.58721115	-82.59437429	1.011489361e-14	0	0	0	0	0	0	0
19.58792166	-82.52367005	1.010623484e-14	0	0	0	0	0	0	0
19.58863217	-82.45283624	1.00975602e-14	0	0	0	0	0	0	0
19.58935592	-82.38054938	1.008870761e-14	0	0	0	0	0	0	0
19.59	-82.31610695	1.008081569e-14	0	0	0	0	0	0	0
19.59000047	-82.31605989	1.008080993e-14	0	0	0	0	0	0	0
19.59000094	-82.31601282	1.008080416e-14	0	0	0	0	0	0	0
19.59000331	-82.3157755	1.00807751e-14	0	0	0	0	0	0	0
19.59001512	-82.31459287	1.008063027e-14	0	0	0	0	0	0	0
19.59007416	-82.30868017	1.007990617e-14	0	0	0	0	0	0	0
19.59032849	-82.28319949	1.007678569e-14	0	0	0	0	0	0	0
19.59066067	-82.2498943	1.007270698e-14	0	0	0	0	0	0	0
19.59106393	-82.20942451	1.006775086e-14	0	0	0	0	0	0	0
19.59155389	-82.16019786	1.006172233e-14	0	0	0	0	0	0	0
19.59214607	-82.10061923	1.005442605e-14	0	0	0	0	0	0	0
19.59273825	-82.04095105	1.004711881e-14	0	0	0	0	0	0	0
19.59358161	-81.95581948	1.00366932e-14	0	0	0	0	0	0	0
19.59427602	-81.88558732	1.002809224e-14	0	0	0	0	0	0	0
19.59497042	-81.81523337	1.001947637e-14	0	0	0	0	0	0	0
19.59566482	-81.74475672	1.001084547e-14	0	0	0	0	0	0	0
19.59635923	-81.67415647	1.000219943e-14	0	0	0	0	0	0	0
19.59705363	-81.60343474	9.993538516e-15	0	0	0	0	0	0	0
19.59774803	-81.53259064	9.984862615e-15	0	0	0	0	0	0	0
19.59821853	-81.48451977	9.978975632e-15	0	0	0	0	0	0	0
19.59876059	-81.4290681	9.97218476e-15	0	0	0	0	0	0	0
19.59930265	-81.373542	9.965384775e-15	0	0	0	0	0	0	0
19.6	-81.30199937	9.956623329e-15	0	0	0	0	0	0	0
19.60000095	-81.30190182	9.956611383e-15	0	0	0	0	0	0	0
19.60000189	-81.3018053	9.956599563e-15	0	0	0	0	0	0	0
19.60000662	-81.30131962	9.956540084e-15	0	0	0	0	0	0	0
19.60003025	-81.29889317	9.95624293e-15	0	0	0	0	0	0	0
19.60014842	-81.28675677	9.954756649e-15	0	0	0	0	0	0	0
19.60073928	-81.22602077	9.947318634e-15	0	0	0	0	0	0	0
19.60153097	-81.1445027	9.93733555e-15	0	0	0	0	0	0	0
19.60223131	-81.07225883	9.928488227e-15	0	0	0	0	0	0	0
19.60293166	-80.99989024	9.919625632e-15	0	0	0	0	0	0	0
19.60363201	-80.9273981	9.910747905e-15	0	0	0	0	0	0	0
19.6042491	-80.86342176	9.902913062e-15	0	0	0	0	0	0	0
19.60486619	-80.79934964	9.895066491e-15	0	0	0	0	0	0	0
19.60548329	-80.73518079	9.887208074e-15	0	0	0	0	0	0	0
19.60610038	-80.67091737	9.879338074e-15	0	0	0	0	0	0	0
19.60650074	-80.62917298	9.874225861e-15	0	0	0	0	0	0	0
19.6069011	-80.5873884	9.869108726e-15	0	0	0	0	0	0	0
19.60768783	-80.50516233	9.859038936e-15	0	0	0	0	0	0	0
19.60847456	-80.42278128	9.848950168e-15	0	0	0	0	0	0	0
19.60917082	-80.34974451	9.840005742e-15	0	0	0	0	0	0	0
19.60986708	-80.27658658	9.831046481e-15	0	0	0	0	0	0	0
19.61	-80.26260656	9.829334421e-15	0	0	0	0	0	0	0
19.61000087	-80.26251504	9.829323214e-15	0	0	0	0	0	0	0
19.61000175	-80.26242247	9.829311877e-15	0	0	0	0	0	0	0
19.61000611	-80.26196383	9.829255709e-15	0	0	0	0	0	0	0
19.61002792	-80.25966948	9.828974733e-15	0	0	0	0	0	0	0
19.61013698	-80.2481949	9.827569502e-15	0	0	0	0	0	0	0
19.61052155	-80.20770929	9.822611445e-15	0	0	0	0	0	0	0
19.61113559	-80.14298976	9.814685588e-15	0	0	0	0	0	0	0
19.61188724	-80.06363826	9.804967832e-15	0	0	0	0	0	0	0
19.6126389	-79.98414503	9.795232719e-15	0	0	0	0	0	0	0
19.61329743	-79.91438542	9.786689631e-15	0	0	0	0	0	0	0
19.61395597	-79.84451697	9.778133213e-15	0	0	0	0	0	0	0
19.61461451	-79.77454082	9.769563607e-15	0	0	0	0	0	0	0
19.61527305	-79.70445708	9.760980824e-15	0	0	0	0	0	0	0
19.61593159	-79.63426583	9.752384876e-15	0	0	0	0	0	0	0
19.61659013	-79.56396718	9.743775773e-15	0	0	0	0	0	0	0
19.61705278	-79.51451545	9.737719683e-15	0	0	0	0	0	0	0
19.61751542	-79.46501186	9.731657242e-15	0	0	0	0	0	0	0
19.61797807	-79.4154543	9.725588191e-15	0	0	0	0	0	0	0
19.61881231	-79.32595964	9.714628256e-15	0	0	0	0	0	0	0
19.61931748	-79.2716831	9.707981297e-15	0	0	0	0	0	0	0
19.62	-79.19825178	9.698988554e-15	0	0	0	0	0	0	0
19.62000098	-79.19814626	9.698975632e-15	0	0	0	0	0	0	0
19.62000195	-79.19804182	9.698962841e-15	0	0	0	0	0	0	0
19.62000683	-79.19751637	9.698898492e-15	0	0	0	0	0	0	0
19.62003121	-79.1948912	9.698577001e-15	0	0	0	0	0	0	0
19.62015312	-79.18176206	9.696969146e-15	0	0	0	0	0	0	0
19.62075138	-79.11727923	9.689072277e-15	0	0	0	0	0	0	0
19.62134963	-79.0527094	9.681164754e-15	0	0	0	0	0	0	0
19.62217233	-78.96377073	9.670272908e-15	0	0	0	0	0	0	0
19.62268127	-78.90866812	9.663524784e-15	0	0	0	0	0	0	0
19.62319021	-78.85350194	9.656768875e-15	0	0	0	0	0	0	0
19.62384665	-78.7822538	9.648043494e-15	0	0	0	0	0	0	0
19.62450309	-78.71090008	9.639305184e-15	0	0	0	0	0	0	0
19.62515953	-78.63944087	9.630553955e-15	0	0	0	0	0	0	0
19.62581597	-78.56787627	9.621789819e-15	0	0	0	0	0	0	0
19.62633231	-78.51151127	9.614887098e-15	0	0	0	0	0	0	0
19.62684866	-78.45508009	9.607976271e-15	0	0	0	0	0	0	0
19.6274878	-78.38513925	9.599410989e-15	0	0	0	0	0	0	0
19.62822159	-78.30471811	9.589562239e-15	0	0	0	0	0	0	0
19.62895538	-78.22416584	9.579697431e-15	0	0	0	0	0	0	0
19.62968916	-78.14348367	9.569816715e-15	0	0	0	0	0	0	0
19.63	-78.10926605	9.565626265e-15	0	0	0	0	0	0	0
19.63000178	-78.10907004	9.565602261e-15	0	0	0	0	0	0	0
19.63000357	-78.10887292	9.565578121e-15	0	0	0	0	0	0	0
19.63001249	-78.10789065	9.565457827e-15	0	0	0	0	0	0	0
19.6300571	-78.10297787	9.564856185e-15	0	0	0	0	0	0	0
19.63028017	-78.07840451	9.561846816e-15	0	0	0	0	0	0	0
19.63104448	-77.99411662	9.551524527e-15	0	0	0	0	0	0	0
19.6318088	-77.90968593	9.54118475e-15	0	0	0	0	0	0	0
19.63246708	-77.83685549	9.532265594e-15	0	0	0	0	0	0	0
19.63312536	-77.76392016	9.523333591e-15	0	0	0	0	0	0	0
19.63378365	-77.69087891	9.514388618e-15	0	0	0	0	0	0	0
19.63444193	-77.61773406	9.505430957e-15	0	0	0	0	0	0	0
19.63510021	-77.5444846	9.496460486e-15	0	0	0	0	0	0	0
19.6357585	-77.47112953	9.48747708e-15	0	0	0	0	0	0	0
19.63641678	-77.39767116	9.478481024e-15	0	0	0	0	0	0	0
19.63695407	-77.3376369	9.471128949e-15	0	0	0	0	0	0	0
19.63749137	-77.2775321	9.463768233e-15	0	0	0	0	0	0	0
19.63834098	-77.18234931	9.452111703e-15	0	0	0	0	0	0	0
19.63910384	-77.09673757	9.441627289e-15	0	0	0	0	0	0	0
19.63986671	-77.01098517	9.431125649e-15	0	0	0	0	0	0	0
19.64	-76.99598805	9.429289031e-15	0	0	0	0	0	0	0
19.64000284	-76.99566846	9.429249893e-15	0	0	0	0	0	0	0
19.64000568	-76.99534887	9.429210754e-15	0	0	0	0	0	0	0
19.64001988	-76.99375089	9.429015058e-15	0	0	0	0	0	0	0
19.64009089	-76.98575912	9.428036349e-15	0	0	0	0	0	0	0
19.64044592	-76.94578445	9.423140863e-15	0	0	0	0	0	0	0
19.64109758	-76.87233218	9.414145555e-15	0	0	0	0	0	0	0
19.64174923	-76.79877951	9.405137951e-15	0	0	0	0	0	0	0
19.64240089	-76.72512428	9.396117787e-15	0	0	0	0	0	0	0
19.64298419	-76.65910964	9.388033324e-15	0	0	0	0	0	0	0
19.64356749	-76.59301387	9.379938927e-15	0	0	0	0	0	0	0
19.64440838	-76.49758706	9.368252513e-15	0	0	0	0	0	0	0
19.64524926	-76.40199315	9.356545636e-15	0	0	0	0	0	0	0
19.64609014	-76.30623123	9.344818183e-15	0	0	0	0	0	0	0
19.64693102	-76.21030151	9.33307018e-15	0	0	0	0	0	0	0
19.64760246	-76.13358157	9.323674698e-15	0	0	0	0	0	0	0
19.6482739	-76.05675489	9.314266143e-15	0	0	0	0	0	0	0
19.64894533	-75.97982272	9.304844669e-15	0	0	0	0	0	0	0
19.64961677	-75.90278286	9.295410008e-15	0	0	0	0	0	0	0
19.65	-75.85876401	9.290019253e-15	0	0	0	0	0	0	0
19.65000146	-75.85859624	9.289998707e-15	0	0	0	0	0	0	0
19.65000291	-75.85842962	9.289978303e-15	0	0	0	0	0	0	0
19.6500102	-75.85759193	9.289875715e-15	0	0	0	0	0	0	0
19.65004664	-75.85340444	9.289362895e-15	0	0	0	0	0	0	0
19.65022881	-75.83246574	9.286798643e-15	0	0	0	0	0	0	0
19.65069507	-75.77883795	9.280231133e-15	0	0	0	0	0	0	0
19.65116133	-75.72515892	9.273657348e-15	0	0	0	0	0	0	0
19.65179517	-75.65210484	9.264710804e-15	0	0	0	0	0	0	0
19.65242901	-75.57895623	9.255752683e-15	0	0	0	0	0	0	0
19.65333478	-75.47426153	9.24293128e-15	0	0	0	0	0	0	0
19.65408332	-75.38759514	9.232317708e-15	0	0	0	0	0	0	0
19.65483185	-75.30079853	9.221688189e-15	0	0	0	0	0	0	0
19.65546642	-75.2271135	9.212664375e-15	0	0	0	0	0	0	0
19.656101	-75.15333309	9.203628881e-15	0	0	0	0	0	0	0
19.65673557	-75.07945972	9.194582003e-15	0	0	0	0	0	0	0
19.65737015	-75.00549116	9.185523467e-15	0	0	0	0	0	0	0
19.6581489	-74.91458934	9.174391205e-15	0	0	0	0	0	0	0
19.65892765	-74.82354622	9.163241638e-15	0	0	0	0	0	0	0
19.65970641	-74.73236081	9.152074646e-15	0	0	0	0	0	0	0
19.66	-74.69794761	9.147860244e-15	0	0	0	0	0	0	0
19.66000151	-74.69777056	9.147838562e-15	0	0	0	0	0	0	0
19.66000303	-74.69759234	9.147816736e-15	0	0	0	0	0	0	0
19.66001059	-74.69670592	9.147708181e-15	0	0	0	0	0	0	0
19.66004842	-74.69227012	9.147164953e-15	0	0	0	0	0	0	0
19.66023756	-74.67008731	9.144448342e-15	0	0	0	0	0	0	0
19.66076054	-74.60870767	9.136931504e-15	0	0	0	0	0	0	0
19.66128352	-74.54726457	9.129406894e-15	0	0	0	0	0	0	0
19.66197064	-74.46644084	9.119508842e-15	0	0	0	0	0	0	0
19.66265777	-74.38550659	9.109597255e-15	0	0	0	0	0	0	0
19.66342264	-74.29528721	9.098548567e-15	0	0	0	0	0	0	0
19.66418752	-74.20493146	9.087483179e-15	0	0	0	0	0	0	0
19.66433852	-74.18707777	9.085296733e-15	0	0	0	0	0	0	0
19.66454248	-74.16295393	9.082342415e-15	0	0	0	0	0	0	0
19.66456285	-74.1605441	9.082047295e-15	0	0	0	0	0	0	0
19.66456852	-74.1598733	9.081965146e-15	0	0	0	0	0	0	0
19.66457419	-74.1592025	9.081882996e-15	0	0	0	0	0	0	0
19.66460256	-74.155846	9.081471944e-15	0	0	0	0	0	0	0
19.66474436	-74.13906666	9.079417068e-15	0	0	0	0	0	0	0
